<svg width="1440" height="50" viewBox="0 0 1440 50" fill="none" xmlns="http://www.w3.org/2000/svg">
<rect width="1440" height="50" fill="#E41F26"/>
<path d="M64.542 32H62.716V17.326H64.542V32ZM77.2637 32H75.6137V30.416C74.8217 31.494 73.5237 32.264 72.0277 32.264C69.2557 32.264 67.2977 30.152 67.2977 26.698C67.2977 23.31 69.2337 21.11 72.0277 21.11C73.4577 21.11 74.7557 21.814 75.6137 22.98V17.326H77.2637V32ZM72.4237 30.79C73.7437 30.79 75.0197 30.042 75.6137 29.118V24.3C75.0197 23.376 73.7437 22.584 72.4237 22.584C70.2897 22.584 69.0137 24.344 69.0137 26.698C69.0137 29.052 70.2897 30.79 72.4237 30.79ZM85.364 32.264C82.218 32.264 79.952 29.998 79.952 26.676C79.952 23.596 82.152 21.11 85.188 21.11C88.4 21.11 90.292 23.618 90.292 26.808V27.226H81.69C81.822 29.228 83.23 30.9 85.518 30.9C86.728 30.9 87.96 30.416 88.796 29.558L89.588 30.636C88.532 31.692 87.102 32.264 85.364 32.264ZM88.664 26.016C88.642 24.432 87.586 22.474 85.166 22.474C82.9 22.474 81.778 24.388 81.69 26.016H88.664ZM101.786 32H100.136V25.048C100.136 23.178 99.1905 22.584 97.7605 22.584C96.4625 22.584 95.2305 23.376 94.6145 24.234V32H92.9645V21.374H94.6145V22.914C95.3625 22.034 96.8145 21.11 98.3985 21.11C100.62 21.11 101.786 22.232 101.786 24.542V32ZM107.766 32.264C106.204 32.264 105.412 31.362 105.412 29.778V22.826H103.652V21.374H105.412V18.47H107.062V21.374H109.218V22.826H107.062V29.426C107.062 30.218 107.414 30.79 108.14 30.79C108.602 30.79 109.042 30.592 109.262 30.35L109.746 31.582C109.328 31.978 108.734 32.264 107.766 32.264ZM112.362 19.856C111.768 19.856 111.262 19.372 111.262 18.756C111.262 18.14 111.768 17.634 112.362 17.634C112.978 17.634 113.484 18.14 113.484 18.756C113.484 19.372 112.978 19.856 112.362 19.856ZM113.198 32H111.548V21.374H113.198V32ZM119.174 32.264C117.612 32.264 116.82 31.362 116.82 29.778V22.826H115.06V21.374H116.82V18.47H118.47V21.374H120.626V22.826H118.47V29.426C118.47 30.218 118.822 30.79 119.548 30.79C120.01 30.79 120.45 30.592 120.67 30.35L121.154 31.582C120.736 31.978 120.142 32.264 119.174 32.264ZM122.363 36.158L122.627 34.662C122.869 34.772 123.265 34.838 123.529 34.838C124.255 34.838 124.739 34.596 125.113 33.716L125.817 32.11L121.373 21.374H123.155L126.697 30.086L130.217 21.374H132.021L126.697 34.156C126.059 35.696 124.981 36.29 123.573 36.312C123.221 36.312 122.671 36.246 122.363 36.158ZM144.232 32.264C141.68 32.264 139.81 31.296 138.6 29.932L139.678 28.546C140.646 29.624 142.23 30.636 144.298 30.636C146.916 30.636 147.752 29.228 147.752 28.106C147.752 24.322 139.062 26.412 139.062 21.176C139.062 18.756 141.218 17.106 144.1 17.106C146.344 17.106 148.082 17.854 149.314 19.152L148.214 20.494C147.114 19.284 145.574 18.734 143.968 18.734C142.208 18.734 140.954 19.68 140.954 21.066C140.954 24.366 149.644 22.474 149.644 27.952C149.644 30.086 148.192 32.264 144.232 32.264ZM157.1 32.264C153.954 32.264 151.688 29.998 151.688 26.676C151.688 23.596 153.888 21.11 156.924 21.11C160.136 21.11 162.028 23.618 162.028 26.808V27.226H153.426C153.558 29.228 154.966 30.9 157.254 30.9C158.464 30.9 159.696 30.416 160.532 29.558L161.324 30.636C160.268 31.692 158.838 32.264 157.1 32.264ZM160.4 26.016C160.378 24.432 159.322 22.474 156.902 22.474C154.636 22.474 153.514 24.388 153.426 26.016H160.4ZM169.387 32.264C166.219 32.264 164.085 29.844 164.085 26.676C164.085 23.53 166.219 21.11 169.387 21.11C171.323 21.11 172.467 21.902 173.281 22.958L172.181 23.97C171.477 23.002 170.575 22.584 169.475 22.584C167.209 22.584 165.801 24.322 165.801 26.676C165.801 29.03 167.209 30.79 169.475 30.79C170.575 30.79 171.477 30.35 172.181 29.404L173.281 30.416C172.467 31.472 171.323 32.264 169.387 32.264ZM184.415 32H182.765V30.504C181.951 31.428 180.565 32.264 178.981 32.264C176.759 32.264 175.593 31.186 175.593 28.876V21.374H177.243V28.37C177.243 30.24 178.189 30.79 179.619 30.79C180.917 30.79 182.149 30.042 182.765 29.184V21.374H184.415V32ZM189.361 32H187.711V21.374H189.361V23.09C190.219 21.968 191.451 21.154 192.903 21.154V22.848C192.705 22.804 192.507 22.782 192.243 22.782C191.231 22.782 189.845 23.618 189.361 24.476V32ZM195.786 19.856C195.192 19.856 194.686 19.372 194.686 18.756C194.686 18.14 195.192 17.634 195.786 17.634C196.402 17.634 196.908 18.14 196.908 18.756C196.908 19.372 196.402 19.856 195.786 19.856ZM196.622 32H194.972V21.374H196.622V32ZM202.598 32.264C201.036 32.264 200.244 31.362 200.244 29.778V22.826H198.484V21.374H200.244V18.47H201.894V21.374H204.05V22.826H201.894V29.426C201.894 30.218 202.246 30.79 202.972 30.79C203.434 30.79 203.874 30.592 204.094 30.35L204.578 31.582C204.16 31.978 203.566 32.264 202.598 32.264ZM205.786 36.158L206.05 34.662C206.292 34.772 206.688 34.838 206.952 34.838C207.678 34.838 208.162 34.596 208.536 33.716L209.24 32.11L204.796 21.374H206.578L210.12 30.086L213.64 21.374H215.444L210.12 34.156C209.482 35.696 208.404 36.29 206.996 36.312C206.644 36.312 206.094 36.246 205.786 36.158Z" fill="white"/>
<path d="M310.33 32H300.716V17.326H310.33V18.954H302.542V23.684H310.176V25.312H302.542V30.372H310.33V32ZM321.997 32H320.347V25.048C320.347 23.178 319.401 22.584 317.971 22.584C316.673 22.584 315.441 23.376 314.825 24.234V32H313.175V21.374H314.825V22.914C315.573 22.034 317.025 21.11 318.609 21.11C320.831 21.11 321.997 22.232 321.997 24.542V32ZM334.643 32H332.993V30.416C332.201 31.494 330.903 32.264 329.407 32.264C326.635 32.264 324.677 30.152 324.677 26.698C324.677 23.31 326.613 21.11 329.407 21.11C330.837 21.11 332.135 21.814 332.993 22.98V17.326H334.643V32ZM329.803 30.79C331.123 30.79 332.399 30.042 332.993 29.118V24.3C332.399 23.376 331.123 22.584 329.803 22.584C327.669 22.584 326.393 24.344 326.393 26.698C326.393 29.052 327.669 30.79 329.803 30.79ZM343.183 32.264C341.731 32.264 340.455 31.582 339.597 30.394V36.048H337.947V21.374H339.597V22.958C340.367 21.88 341.687 21.11 343.183 21.11C345.977 21.11 347.913 23.222 347.913 26.676C347.913 30.108 345.977 32.264 343.183 32.264ZM342.765 30.79C344.899 30.79 346.175 29.03 346.175 26.676C346.175 24.322 344.899 22.584 342.765 22.584C341.467 22.584 340.169 23.354 339.597 24.278V29.074C340.169 29.998 341.467 30.79 342.765 30.79ZM355.179 32.264C351.945 32.264 349.921 29.756 349.921 26.676C349.921 23.596 351.945 21.11 355.179 21.11C358.413 21.11 360.437 23.596 360.437 26.676C360.437 29.756 358.413 32.264 355.179 32.264ZM355.179 30.79C357.445 30.79 358.699 28.854 358.699 26.676C358.699 24.52 357.445 22.584 355.179 22.584C352.913 22.584 351.637 24.52 351.637 26.676C351.637 28.854 352.913 30.79 355.179 30.79ZM363.941 19.856C363.347 19.856 362.841 19.372 362.841 18.756C362.841 18.14 363.347 17.634 363.941 17.634C364.557 17.634 365.063 18.14 365.063 18.756C365.063 19.372 364.557 19.856 363.941 19.856ZM364.777 32H363.127V21.374H364.777V32ZM376.89 32H375.24V25.048C375.24 23.178 374.294 22.584 372.864 22.584C371.566 22.584 370.334 23.376 369.718 24.234V32H368.068V21.374H369.718V22.914C370.466 22.034 371.918 21.11 373.502 21.11C375.724 21.11 376.89 22.232 376.89 24.542V32ZM382.869 32.264C381.307 32.264 380.515 31.362 380.515 29.778V22.826H378.755V21.374H380.515V18.47H382.165V21.374H384.321V22.826H382.165V29.426C382.165 30.218 382.517 30.79 383.243 30.79C383.705 30.79 384.145 30.592 384.365 30.35L384.849 31.582C384.431 31.978 383.837 32.264 382.869 32.264ZM397.142 32.264C394.59 32.264 392.72 31.296 391.51 29.932L392.588 28.546C393.556 29.624 395.14 30.636 397.208 30.636C399.826 30.636 400.662 29.228 400.662 28.106C400.662 24.322 391.972 26.412 391.972 21.176C391.972 18.756 394.128 17.106 397.01 17.106C399.254 17.106 400.992 17.854 402.224 19.152L401.124 20.494C400.024 19.284 398.484 18.734 396.878 18.734C395.118 18.734 393.864 19.68 393.864 21.066C393.864 24.366 402.554 22.474 402.554 27.952C402.554 30.086 401.102 32.264 397.142 32.264ZM410.01 32.264C406.864 32.264 404.598 29.998 404.598 26.676C404.598 23.596 406.798 21.11 409.834 21.11C413.046 21.11 414.938 23.618 414.938 26.808V27.226H406.336C406.468 29.228 407.876 30.9 410.164 30.9C411.374 30.9 412.606 30.416 413.442 29.558L414.234 30.636C413.178 31.692 411.748 32.264 410.01 32.264ZM413.31 26.016C413.288 24.432 412.232 22.474 409.812 22.474C407.546 22.474 406.424 24.388 406.336 26.016H413.31ZM422.297 32.264C419.129 32.264 416.995 29.844 416.995 26.676C416.995 23.53 419.129 21.11 422.297 21.11C424.233 21.11 425.377 21.902 426.191 22.958L425.091 23.97C424.387 23.002 423.485 22.584 422.385 22.584C420.119 22.584 418.711 24.322 418.711 26.676C418.711 29.03 420.119 30.79 422.385 30.79C423.485 30.79 424.387 30.35 425.091 29.404L426.191 30.416C425.377 31.472 424.233 32.264 422.297 32.264ZM437.326 32H435.676V30.504C434.862 31.428 433.476 32.264 431.892 32.264C429.67 32.264 428.504 31.186 428.504 28.876V21.374H430.154V28.37C430.154 30.24 431.1 30.79 432.53 30.79C433.828 30.79 435.06 30.042 435.676 29.184V21.374H437.326V32ZM442.271 32H440.621V21.374H442.271V23.09C443.129 21.968 444.361 21.154 445.813 21.154V22.848C445.615 22.804 445.417 22.782 445.153 22.782C444.141 22.782 442.755 23.618 442.271 24.476V32ZM448.696 19.856C448.102 19.856 447.596 19.372 447.596 18.756C447.596 18.14 448.102 17.634 448.696 17.634C449.312 17.634 449.818 18.14 449.818 18.756C449.818 19.372 449.312 19.856 448.696 19.856ZM449.532 32H447.882V21.374H449.532V32ZM455.508 32.264C453.946 32.264 453.154 31.362 453.154 29.778V22.826H451.394V21.374H453.154V18.47H454.804V21.374H456.96V22.826H454.804V29.426C454.804 30.218 455.156 30.79 455.882 30.79C456.344 30.79 456.784 30.592 457.004 30.35L457.488 31.582C457.07 31.978 456.476 32.264 455.508 32.264ZM458.697 36.158L458.961 34.662C459.203 34.772 459.599 34.838 459.863 34.838C460.589 34.838 461.073 34.596 461.447 33.716L462.151 32.11L457.707 21.374H459.489L463.031 30.086L466.551 21.374H468.355L463.031 34.156C462.393 35.696 461.315 36.29 459.907 36.312C459.555 36.312 459.005 36.246 458.697 36.158Z" fill="white"/>
<path d="M560.668 32.264C556.444 32.264 553.122 29.184 553.122 24.674C553.122 20.164 556.444 17.084 560.668 17.084C563.264 17.084 565.068 18.338 566.234 19.988L564.694 20.846C563.858 19.614 562.34 18.712 560.668 18.712C557.456 18.712 555.014 21.176 555.014 24.674C555.014 28.15 557.456 30.636 560.668 30.636C562.34 30.636 563.858 29.756 564.694 28.502L566.256 29.36C565.024 31.032 563.264 32.264 560.668 32.264ZM570.167 32H568.517V17.326H570.167V32ZM578.101 32.264C574.867 32.264 572.843 29.756 572.843 26.676C572.843 23.596 574.867 21.11 578.101 21.11C581.335 21.11 583.359 23.596 583.359 26.676C583.359 29.756 581.335 32.264 578.101 32.264ZM578.101 30.79C580.367 30.79 581.621 28.854 581.621 26.676C581.621 24.52 580.367 22.584 578.101 22.584C575.835 22.584 574.559 24.52 574.559 26.676C574.559 28.854 575.835 30.79 578.101 30.79ZM594.87 32H593.22V30.504C592.406 31.428 591.02 32.264 589.436 32.264C587.214 32.264 586.048 31.186 586.048 28.876V21.374H587.698V28.37C587.698 30.24 588.644 30.79 590.074 30.79C591.372 30.79 592.604 30.042 593.22 29.184V21.374H594.87V32ZM607.516 32H605.866V30.416C605.074 31.494 603.776 32.264 602.28 32.264C599.508 32.264 597.55 30.152 597.55 26.698C597.55 23.31 599.486 21.11 602.28 21.11C603.71 21.11 605.008 21.814 605.866 22.98V17.326H607.516V32ZM602.676 30.79C603.996 30.79 605.272 30.042 605.866 29.118V24.3C605.272 23.376 603.996 22.584 602.676 22.584C600.542 22.584 599.266 24.344 599.266 26.698C599.266 29.052 600.542 30.79 602.676 30.79ZM621.31 32.264C618.758 32.264 616.888 31.296 615.678 29.932L616.756 28.546C617.724 29.624 619.308 30.636 621.376 30.636C623.994 30.636 624.83 29.228 624.83 28.106C624.83 24.322 616.14 26.412 616.14 21.176C616.14 18.756 618.296 17.106 621.178 17.106C623.422 17.106 625.16 17.854 626.392 19.152L625.292 20.494C624.192 19.284 622.652 18.734 621.046 18.734C619.286 18.734 618.032 19.68 618.032 21.066C618.032 24.366 626.722 22.474 626.722 27.952C626.722 30.086 625.27 32.264 621.31 32.264ZM634.178 32.264C631.032 32.264 628.766 29.998 628.766 26.676C628.766 23.596 630.966 21.11 634.002 21.11C637.214 21.11 639.106 23.618 639.106 26.808V27.226H630.504C630.636 29.228 632.044 30.9 634.332 30.9C635.542 30.9 636.774 30.416 637.61 29.558L638.402 30.636C637.346 31.692 635.916 32.264 634.178 32.264ZM637.478 26.016C637.456 24.432 636.4 22.474 633.98 22.474C631.714 22.474 630.592 24.388 630.504 26.016H637.478ZM646.465 32.264C643.297 32.264 641.163 29.844 641.163 26.676C641.163 23.53 643.297 21.11 646.465 21.11C648.401 21.11 649.545 21.902 650.359 22.958L649.259 23.97C648.555 23.002 647.653 22.584 646.553 22.584C644.287 22.584 642.879 24.322 642.879 26.676C642.879 29.03 644.287 30.79 646.553 30.79C647.653 30.79 648.555 30.35 649.259 29.404L650.359 30.416C649.545 31.472 648.401 32.264 646.465 32.264ZM661.493 32H659.843V30.504C659.029 31.428 657.643 32.264 656.059 32.264C653.837 32.264 652.671 31.186 652.671 28.876V21.374H654.321V28.37C654.321 30.24 655.267 30.79 656.697 30.79C657.995 30.79 659.227 30.042 659.843 29.184V21.374H661.493V32ZM666.439 32H664.789V21.374H666.439V23.09C667.297 21.968 668.529 21.154 669.981 21.154V22.848C669.783 22.804 669.585 22.782 669.321 22.782C668.309 22.782 666.923 23.618 666.439 24.476V32ZM672.864 19.856C672.27 19.856 671.764 19.372 671.764 18.756C671.764 18.14 672.27 17.634 672.864 17.634C673.48 17.634 673.986 18.14 673.986 18.756C673.986 19.372 673.48 19.856 672.864 19.856ZM673.7 32H672.05V21.374H673.7V32ZM679.676 32.264C678.114 32.264 677.322 31.362 677.322 29.778V22.826H675.562V21.374H677.322V18.47H678.972V21.374H681.128V22.826H678.972V29.426C678.972 30.218 679.324 30.79 680.05 30.79C680.512 30.79 680.952 30.592 681.172 30.35L681.656 31.582C681.238 31.978 680.644 32.264 679.676 32.264ZM682.865 36.158L683.129 34.662C683.371 34.772 683.767 34.838 684.031 34.838C684.757 34.838 685.241 34.596 685.615 33.716L686.319 32.11L681.875 21.374H683.657L687.199 30.086L690.719 21.374H692.523L687.199 34.156C686.561 35.696 685.483 36.29 684.075 36.312C683.723 36.312 683.173 36.246 682.865 36.158Z" fill="white"/>
<path d="M787.792 32H777.056V30.482L785.306 18.954H777.056V17.326H787.638V18.844L779.388 30.372H787.792V32ZM795.315 32.264C792.169 32.264 789.903 29.998 789.903 26.676C789.903 23.596 792.103 21.11 795.139 21.11C798.351 21.11 800.243 23.618 800.243 26.808V27.226H791.641C791.773 29.228 793.181 30.9 795.469 30.9C796.679 30.9 797.911 30.416 798.747 29.558L799.539 30.636C798.483 31.692 797.053 32.264 795.315 32.264ZM798.615 26.016C798.593 24.432 797.537 22.474 795.117 22.474C792.851 22.474 791.729 24.388 791.641 26.016H798.615ZM804.566 32H802.916V21.374H804.566V23.09C805.424 21.968 806.656 21.154 808.108 21.154V22.848C807.91 22.804 807.712 22.782 807.448 22.782C806.436 22.782 805.05 23.618 804.566 24.476V32ZM814.819 32.264C811.585 32.264 809.561 29.756 809.561 26.676C809.561 23.596 811.585 21.11 814.819 21.11C818.053 21.11 820.077 23.596 820.077 26.676C820.077 29.756 818.053 32.264 814.819 32.264ZM814.819 30.79C817.085 30.79 818.339 28.854 818.339 26.676C818.339 24.52 817.085 22.584 814.819 22.584C812.553 22.584 811.277 24.52 811.277 26.676C811.277 28.854 812.553 30.79 814.819 30.79ZM833.961 32H832.135V18.954H827.493V17.326H838.625V18.954H833.961V32ZM840.767 32H839.117V21.374H840.767V23.09C841.625 21.968 842.857 21.154 844.309 21.154V22.848C844.111 22.804 843.913 22.782 843.649 22.782C842.637 22.782 841.251 23.618 840.767 24.476V32ZM855.201 32H853.551V30.504C852.737 31.428 851.351 32.264 849.767 32.264C847.545 32.264 846.379 31.186 846.379 28.876V21.374H848.029V28.37C848.029 30.24 848.975 30.79 850.405 30.79C851.703 30.79 852.935 30.042 853.551 29.184V21.374H855.201V32ZM861.862 32.264C860.124 32.264 858.65 31.736 857.572 30.592L858.43 29.404C859.134 30.218 860.476 30.922 861.928 30.922C863.556 30.922 864.436 30.152 864.436 29.096C864.436 26.522 857.858 28.106 857.858 24.168C857.858 22.518 859.288 21.11 861.818 21.11C863.622 21.11 864.898 21.792 865.756 22.65L864.986 23.794C864.348 23.024 863.182 22.452 861.818 22.452C860.366 22.452 859.464 23.178 859.464 24.124C859.464 26.456 866.042 24.916 866.042 29.052C866.042 30.834 864.612 32.264 861.862 32.264ZM871.406 32.264C869.844 32.264 869.052 31.362 869.052 29.778V22.826H867.292V21.374H869.052V18.47H870.702V21.374H872.858V22.826H870.702V29.426C870.702 30.218 871.054 30.79 871.78 30.79C872.242 30.79 872.682 30.592 872.902 30.35L873.386 31.582C872.968 31.978 872.374 32.264 871.406 32.264Z" fill="white"/>
<path d="M970.86 32H969.1L960.542 20.296V32H958.716V17.326H960.586L969.034 28.788V17.326H970.86V32ZM979.022 32.264C975.876 32.264 973.61 29.998 973.61 26.676C973.61 23.596 975.81 21.11 978.846 21.11C982.058 21.11 983.95 23.618 983.95 26.808V27.226H975.348C975.48 29.228 976.888 30.9 979.176 30.9C980.386 30.9 981.618 30.416 982.454 29.558L983.246 30.636C982.19 31.692 980.76 32.264 979.022 32.264ZM982.322 26.016C982.3 24.432 981.244 22.474 978.824 22.474C976.558 22.474 975.436 24.388 975.348 26.016H982.322ZM989.307 32.264C987.745 32.264 986.953 31.362 986.953 29.778V22.826H985.193V21.374H986.953V18.47H988.603V21.374H990.759V22.826H988.603V29.426C988.603 30.218 988.955 30.79 989.681 30.79C990.143 30.79 990.583 30.592 990.803 30.35L991.287 31.582C990.869 31.978 990.275 32.264 989.307 32.264ZM1003.94 32H1002.29L999.513 23.464L996.741 32H995.091L991.703 21.374H993.419L996.015 29.844L998.809 21.374H1000.22L1003.01 29.844L1005.61 21.374H1007.32L1003.94 32ZM1013.89 32.264C1010.65 32.264 1008.63 29.756 1008.63 26.676C1008.63 23.596 1010.65 21.11 1013.89 21.11C1017.12 21.11 1019.15 23.596 1019.15 26.676C1019.15 29.756 1017.12 32.264 1013.89 32.264ZM1013.89 30.79C1016.15 30.79 1017.41 28.854 1017.41 26.676C1017.41 24.52 1016.15 22.584 1013.89 22.584C1011.62 22.584 1010.35 24.52 1010.35 26.676C1010.35 28.854 1011.62 30.79 1013.89 30.79ZM1023.49 32H1021.84V21.374H1023.49V23.09C1024.34 21.968 1025.58 21.154 1027.03 21.154V22.848C1026.83 22.804 1026.63 22.782 1026.37 22.782C1025.36 22.782 1023.97 23.618 1023.49 24.476V32ZM1038.45 32H1036.34L1032.51 27.226L1030.75 28.964V32H1029.1V17.326H1030.75V27.028L1036.34 21.374H1038.43L1033.72 26.192L1038.45 32ZM1050.89 32.264C1048.34 32.264 1046.47 31.296 1045.26 29.932L1046.33 28.546C1047.3 29.624 1048.89 30.636 1050.95 30.636C1053.57 30.636 1054.41 29.228 1054.41 28.106C1054.41 24.322 1045.72 26.412 1045.72 21.176C1045.72 18.756 1047.87 17.106 1050.76 17.106C1053 17.106 1054.74 17.854 1055.97 19.152L1054.87 20.494C1053.77 19.284 1052.23 18.734 1050.62 18.734C1048.86 18.734 1047.61 19.68 1047.61 21.066C1047.61 24.366 1056.3 22.474 1056.3 27.952C1056.3 30.086 1054.85 32.264 1050.89 32.264ZM1063.76 32.264C1060.61 32.264 1058.34 29.998 1058.34 26.676C1058.34 23.596 1060.54 21.11 1063.58 21.11C1066.79 21.11 1068.68 23.618 1068.68 26.808V27.226H1060.08C1060.21 29.228 1061.62 30.9 1063.91 30.9C1065.12 30.9 1066.35 30.416 1067.19 29.558L1067.98 30.636C1066.92 31.692 1065.49 32.264 1063.76 32.264ZM1067.06 26.016C1067.03 24.432 1065.98 22.474 1063.56 22.474C1061.29 22.474 1060.17 24.388 1060.08 26.016H1067.06ZM1076.04 32.264C1072.88 32.264 1070.74 29.844 1070.74 26.676C1070.74 23.53 1072.88 21.11 1076.04 21.11C1077.98 21.11 1079.12 21.902 1079.94 22.958L1078.84 23.97C1078.13 23.002 1077.23 22.584 1076.13 22.584C1073.87 22.584 1072.46 24.322 1072.46 26.676C1072.46 29.03 1073.87 30.79 1076.13 30.79C1077.23 30.79 1078.13 30.35 1078.84 29.404L1079.94 30.416C1079.12 31.472 1077.98 32.264 1076.04 32.264ZM1091.07 32H1089.42V30.504C1088.61 31.428 1087.22 32.264 1085.64 32.264C1083.42 32.264 1082.25 31.186 1082.25 28.876V21.374H1083.9V28.37C1083.9 30.24 1084.85 30.79 1086.28 30.79C1087.57 30.79 1088.81 30.042 1089.42 29.184V21.374H1091.07V32ZM1096.02 32H1094.37V21.374H1096.02V23.09C1096.87 21.968 1098.11 21.154 1099.56 21.154V22.848C1099.36 22.804 1099.16 22.782 1098.9 22.782C1097.89 22.782 1096.5 23.618 1096.02 24.476V32ZM1102.44 19.856C1101.85 19.856 1101.34 19.372 1101.34 18.756C1101.34 18.14 1101.85 17.634 1102.44 17.634C1103.06 17.634 1103.56 18.14 1103.56 18.756C1103.56 19.372 1103.06 19.856 1102.44 19.856ZM1103.28 32H1101.63V21.374H1103.28V32ZM1109.25 32.264C1107.69 32.264 1106.9 31.362 1106.9 29.778V22.826H1105.14V21.374H1106.9V18.47H1108.55V21.374H1110.71V22.826H1108.55V29.426C1108.55 30.218 1108.9 30.79 1109.63 30.79C1110.09 30.79 1110.53 30.592 1110.75 30.35L1111.23 31.582C1110.82 31.978 1110.22 32.264 1109.25 32.264ZM1112.44 36.158L1112.71 34.662C1112.95 34.772 1113.34 34.838 1113.61 34.838C1114.33 34.838 1114.82 34.596 1115.19 33.716L1115.9 32.11L1111.45 21.374H1113.23L1116.78 30.086L1120.3 21.374H1122.1L1116.78 34.156C1116.14 35.696 1115.06 36.29 1113.65 36.312C1113.3 36.312 1112.75 36.246 1112.44 36.158Z" fill="white"/>
<path d="M1220.28 32H1218.19L1216.89 28.744H1209.59L1208.29 32H1206.2L1212.09 17.326H1214.36L1220.28 32ZM1216.34 27.116L1213.24 19.218L1210.11 27.116H1216.34ZM1227.37 32.264C1225.91 32.264 1224.64 31.582 1223.78 30.394V36.048H1222.13V21.374H1223.78V22.958C1224.55 21.88 1225.87 21.11 1227.37 21.11C1230.16 21.11 1232.1 23.222 1232.1 26.676C1232.1 30.108 1230.16 32.264 1227.37 32.264ZM1226.95 30.79C1229.08 30.79 1230.36 29.03 1230.36 26.676C1230.36 24.322 1229.08 22.584 1226.95 22.584C1225.65 22.584 1224.35 23.354 1223.78 24.278V29.074C1224.35 29.998 1225.65 30.79 1226.95 30.79ZM1239.96 32.264C1238.5 32.264 1237.23 31.582 1236.37 30.394V36.048H1234.72V21.374H1236.37V22.958C1237.14 21.88 1238.46 21.11 1239.96 21.11C1242.75 21.11 1244.69 23.222 1244.69 26.676C1244.69 30.108 1242.75 32.264 1239.96 32.264ZM1239.54 30.79C1241.67 30.79 1242.95 29.03 1242.95 26.676C1242.95 24.322 1241.67 22.584 1239.54 22.584C1238.24 22.584 1236.94 23.354 1236.37 24.278V29.074C1236.94 29.998 1238.24 30.79 1239.54 30.79ZM1248.96 32H1247.31V17.326H1248.96V32ZM1253.07 19.856C1252.47 19.856 1251.97 19.372 1251.97 18.756C1251.97 18.14 1252.47 17.634 1253.07 17.634C1253.68 17.634 1254.19 18.14 1254.19 18.756C1254.19 19.372 1253.68 19.856 1253.07 19.856ZM1253.9 32H1252.25V21.374H1253.9V32ZM1261.88 32.264C1258.71 32.264 1256.58 29.844 1256.58 26.676C1256.58 23.53 1258.71 21.11 1261.88 21.11C1263.81 21.11 1264.96 21.902 1265.77 22.958L1264.67 23.97C1263.97 23.002 1263.07 22.584 1261.97 22.584C1259.7 22.584 1258.29 24.322 1258.29 26.676C1258.29 29.03 1259.7 30.79 1261.97 30.79C1263.07 30.79 1263.97 30.35 1264.67 29.404L1265.77 30.416C1264.96 31.472 1263.81 32.264 1261.88 32.264ZM1276.38 32H1274.73V30.79C1273.85 31.758 1272.64 32.264 1271.21 32.264C1269.41 32.264 1267.49 31.054 1267.49 28.744C1267.49 26.368 1269.41 25.246 1271.21 25.246C1272.66 25.246 1273.87 25.708 1274.73 26.698V24.784C1274.73 23.354 1273.59 22.54 1272.05 22.54C1270.77 22.54 1269.74 23.002 1268.79 24.014L1268.02 22.87C1269.16 21.682 1270.53 21.11 1272.27 21.11C1274.51 21.11 1276.38 22.122 1276.38 24.696V32ZM1271.8 31.076C1272.97 31.076 1274.09 30.636 1274.73 29.756V27.754C1274.09 26.874 1272.97 26.434 1271.8 26.434C1270.26 26.434 1269.19 27.402 1269.19 28.766C1269.19 30.108 1270.26 31.076 1271.8 31.076ZM1282.37 32.264C1280.81 32.264 1280.02 31.362 1280.02 29.778V22.826H1278.26V21.374H1280.02V18.47H1281.67V21.374H1283.82V22.826H1281.67V29.426C1281.67 30.218 1282.02 30.79 1282.75 30.79C1283.21 30.79 1283.65 30.592 1283.87 30.35L1284.35 31.582C1283.93 31.978 1283.34 32.264 1282.37 32.264ZM1286.97 19.856C1286.37 19.856 1285.87 19.372 1285.87 18.756C1285.87 18.14 1286.37 17.634 1286.97 17.634C1287.58 17.634 1288.09 18.14 1288.09 18.756C1288.09 19.372 1287.58 19.856 1286.97 19.856ZM1287.8 32H1286.15V21.374H1287.8V32ZM1295.74 32.264C1292.5 32.264 1290.48 29.756 1290.48 26.676C1290.48 23.596 1292.5 21.11 1295.74 21.11C1298.97 21.11 1301 23.596 1301 26.676C1301 29.756 1298.97 32.264 1295.74 32.264ZM1295.74 30.79C1298 30.79 1299.26 28.854 1299.26 26.676C1299.26 24.52 1298 22.584 1295.74 22.584C1293.47 22.584 1292.2 24.52 1292.2 26.676C1292.2 28.854 1293.47 30.79 1295.74 30.79ZM1312.51 32H1310.86V25.048C1310.86 23.178 1309.91 22.584 1308.48 22.584C1307.18 22.584 1305.95 23.376 1305.34 24.234V32H1303.69V21.374H1305.34V22.914C1306.08 22.034 1307.54 21.11 1309.12 21.11C1311.34 21.11 1312.51 22.232 1312.51 24.542V32ZM1326.29 32.264C1323.74 32.264 1321.87 31.296 1320.66 29.932L1321.74 28.546C1322.71 29.624 1324.29 30.636 1326.36 30.636C1328.98 30.636 1329.81 29.228 1329.81 28.106C1329.81 24.322 1321.12 26.412 1321.12 21.176C1321.12 18.756 1323.28 17.106 1326.16 17.106C1328.4 17.106 1330.14 17.854 1331.37 19.152L1330.27 20.494C1329.17 19.284 1327.63 18.734 1326.03 18.734C1324.27 18.734 1323.01 19.68 1323.01 21.066C1323.01 24.366 1331.7 22.474 1331.7 27.952C1331.7 30.086 1330.25 32.264 1326.29 32.264ZM1339.16 32.264C1336.01 32.264 1333.75 29.998 1333.75 26.676C1333.75 23.596 1335.95 21.11 1338.98 21.11C1342.2 21.11 1344.09 23.618 1344.09 26.808V27.226H1335.49C1335.62 29.228 1337.03 30.9 1339.31 30.9C1340.52 30.9 1341.76 30.416 1342.59 29.558L1343.38 30.636C1342.33 31.692 1340.9 32.264 1339.16 32.264ZM1342.46 26.016C1342.44 24.432 1341.38 22.474 1338.96 22.474C1336.7 22.474 1335.57 24.388 1335.49 26.016H1342.46ZM1351.45 32.264C1348.28 32.264 1346.15 29.844 1346.15 26.676C1346.15 23.53 1348.28 21.11 1351.45 21.11C1353.38 21.11 1354.53 21.902 1355.34 22.958L1354.24 23.97C1353.54 23.002 1352.64 22.584 1351.54 22.584C1349.27 22.584 1347.86 24.322 1347.86 26.676C1347.86 29.03 1349.27 30.79 1351.54 30.79C1352.64 30.79 1353.54 30.35 1354.24 29.404L1355.34 30.416C1354.53 31.472 1353.38 32.264 1351.45 32.264ZM1366.48 32H1364.83V30.504C1364.01 31.428 1362.63 32.264 1361.04 32.264C1358.82 32.264 1357.65 31.186 1357.65 28.876V21.374H1359.3V28.37C1359.3 30.24 1360.25 30.79 1361.68 30.79C1362.98 30.79 1364.21 30.042 1364.83 29.184V21.374H1366.48V32ZM1371.42 32H1369.77V21.374H1371.42V23.09C1372.28 21.968 1373.51 21.154 1374.96 21.154V22.848C1374.77 22.804 1374.57 22.782 1374.3 22.782C1373.29 22.782 1371.91 23.618 1371.42 24.476V32ZM1377.85 19.856C1377.25 19.856 1376.75 19.372 1376.75 18.756C1376.75 18.14 1377.25 17.634 1377.85 17.634C1378.46 17.634 1378.97 18.14 1378.97 18.756C1378.97 19.372 1378.46 19.856 1377.85 19.856ZM1378.68 32H1377.03V21.374H1378.68V32ZM1384.66 32.264C1383.1 32.264 1382.3 31.362 1382.3 29.778V22.826H1380.54V21.374H1382.3V18.47H1383.95V21.374H1386.11V22.826H1383.95V29.426C1383.95 30.218 1384.31 30.79 1385.03 30.79C1385.49 30.79 1385.93 30.592 1386.15 30.35L1386.64 31.582C1386.22 31.978 1385.63 32.264 1384.66 32.264ZM1387.85 36.158L1388.11 34.662C1388.35 34.772 1388.75 34.838 1389.01 34.838C1389.74 34.838 1390.22 34.596 1390.6 33.716L1391.3 32.11L1386.86 21.374H1388.64L1392.18 30.086L1395.7 21.374H1397.51L1392.18 34.156C1391.54 35.696 1390.47 36.29 1389.06 36.312C1388.71 36.312 1388.16 36.246 1387.85 36.158Z" fill="white"/>
<path d="M257.5 13L259.696 20.6959L267.459 18.75L261.893 24.5L267.459 30.25L259.696 28.3041L257.5 36L255.304 28.3041L247.541 30.25L253.107 24.5L247.541 18.75L255.304 20.6959L257.5 13Z" fill="white"/>
<path d="M510.5 13L512.696 20.6959L520.459 18.75L514.893 24.5L520.459 30.25L512.696 28.3041L510.5 36L508.304 28.3041L500.541 30.25L506.107 24.5L500.541 18.75L508.304 20.6959L510.5 13Z" fill="white"/>
<path d="M734.5 13L736.696 20.6959L744.459 18.75L738.893 24.5L744.459 30.25L736.696 28.3041L734.5 36L732.304 28.3041L724.541 30.25L730.107 24.5L724.541 18.75L732.304 20.6959L734.5 13Z" fill="white"/>
<path d="M915.5 13L917.696 20.6959L925.459 18.75L919.893 24.5L925.459 30.25L917.696 28.3041L915.5 36L913.304 28.3041L905.541 30.25L911.107 24.5L905.541 18.75L913.304 20.6959L915.5 13Z" fill="white"/>
<path d="M1164.5 13L1166.7 20.6959L1174.46 18.75L1168.89 24.5L1174.46 30.25L1166.7 28.3041L1164.5 36L1162.3 28.3041L1154.54 30.25L1160.11 24.5L1154.54 18.75L1162.3 20.6959L1164.5 13Z" fill="white"/>
<path d="M1439.5 13L1441.7 20.6959L1449.46 18.75L1443.89 24.5L1449.46 30.25L1441.7 28.3041L1439.5 36L1437.3 28.3041L1429.54 30.25L1435.11 24.5L1429.54 18.75L1437.3 20.6959L1439.5 13Z" fill="white"/>
</svg>
