<svg width="22" height="21" viewBox="0 0 22 21" fill="none" xmlns="http://www.w3.org/2000/svg">
<path d="M8.85148 12.5931V13.226H8.23392V13.8179C8.23392 15.4498 9.61911 16.7775 11.3217 16.7775C13.0243 16.7775 14.4095 15.4498 14.4095 13.8179V13.226H13.792V12.5931C14.6399 12.1901 15.3653 11.5874 15.9064 10.8322C16.5432 9.94343 16.8798 8.90179 16.8798 7.81985V5.45221C16.8798 2.51478 14.3864 0.125 11.3217 0.125C8.25701 0.125 5.76367 2.51478 5.76367 5.45221V7.81985C5.76367 8.90179 6.10028 9.94343 6.73707 10.8323C7.27814 11.5874 8.00357 12.1901 8.85148 12.5931ZM11.3217 9.59559C10.9807 9.59559 10.7042 9.33057 10.7042 9.00368C10.7042 8.67678 10.9807 8.41176 11.3217 8.41176C11.6628 8.41176 11.9393 8.67678 11.9393 9.00368C11.9393 9.33057 11.6628 9.59559 11.3217 9.59559ZM11.3217 2.49265C12.3433 2.49265 13.1744 3.28924 13.1744 4.26838C13.1744 4.82395 12.8975 5.35497 12.4336 5.68889C12.1241 5.91169 11.9393 6.26573 11.9393 6.63603C11.9393 6.96292 11.6628 7.22794 11.3217 7.22794C10.9807 7.22794 10.7042 6.96292 10.7042 6.63603C10.7042 5.89539 11.0734 5.18742 11.6919 4.74231C11.8491 4.62909 11.9393 4.45637 11.9393 4.26838C11.9393 3.942 11.6622 3.67647 11.3217 3.67647C10.9812 3.67647 10.7042 3.942 10.7042 4.26838C10.7042 4.59528 10.4277 4.86029 10.0866 4.86029C9.74554 4.86029 9.46904 4.59528 9.46904 4.26838C9.46904 3.28924 10.3002 2.49265 11.3217 2.49265Z" fill="black"/>
<path d="M15.6448 13.2532V13.8179C15.6448 16.1026 13.7056 17.9613 11.3219 17.9613C8.93824 17.9613 6.99898 16.1026 6.99898 13.8179V13.2532C3.54158 13.5532 0.823364 16.3463 0.823364 19.737C0.823364 20.0639 1.09987 20.3289 1.44093 20.3289H21.2029C21.5439 20.3289 21.8204 20.0639 21.8204 19.737C21.8204 16.3463 19.1022 13.5532 15.6448 13.2532Z" fill="black"/>
</svg>
