<svg width="42" height="40" viewBox="0 0 42 40" fill="none" xmlns="http://www.w3.org/2000/svg">
<path d="M28.9169 16.8352C24.5447 12.4458 17.4568 12.4458 13.0846 16.8352C8.71235 21.2246 8.71235 28.3403 13.0846 32.7298C17.4568 37.1192 24.5447 37.1192 28.9169 32.7298C33.28 28.3403 33.28 21.2246 28.9169 16.8352ZM16.0808 36.4012C14.3428 35.656 12.7949 34.5291 11.5638 33.1205L8.73045 38.0461L11.6091 37.5917C11.8535 37.5463 12.1069 37.6281 12.2699 37.8371L14.026 40L16.0808 36.4012ZM30.4376 33.1205C29.1975 34.5291 27.6586 35.656 25.9115 36.4012L27.9754 39.9909L29.7316 37.828C29.8945 37.6281 30.148 37.5372 30.3924 37.5826L33.271 38.037L30.4376 33.1205ZM25.4589 20.3067C22.9967 17.8348 19.0047 17.8348 16.5425 20.3067C14.0803 22.7786 14.0803 26.7863 16.5425 29.2582C19.0047 31.7301 22.9967 31.7301 25.4589 29.2582C27.9211 26.7863 27.9211 22.7786 25.4589 20.3067ZM20.9962 17.0624C25.2417 17.0624 28.6906 20.5157 28.6906 24.787C28.6906 29.0492 25.2507 32.5117 20.9962 32.5117C16.7507 32.5117 13.3018 29.0583 13.3018 24.787C13.3109 20.5157 16.7507 17.0624 20.9962 17.0624ZM17.4115 25.2959C17.2214 24.9597 17.33 24.5416 17.665 24.3508C17.9999 24.16 18.4163 24.269 18.6064 24.6053L19.7108 26.5228L23.4946 22.7241C23.7662 22.4515 24.2097 22.4515 24.4722 22.7241C24.7438 22.9967 24.7438 23.4329 24.4722 23.7056L20.0548 28.1404C19.7379 28.4585 19.1948 28.3949 18.9685 27.995L17.4115 25.2959ZM36.9733 6.94766L38.3402 9.79214L41.4542 10.2193C41.9883 10.292 42.1783 10.9463 41.8072 11.3098L39.5351 13.4909L40.0963 16.5989C40.1869 17.126 39.6347 17.5168 39.173 17.2714L36.403 15.781L33.6331 17.2714C33.1805 17.5168 32.5921 17.1351 32.7188 16.5626L33.271 13.4909L30.9989 11.3098C30.6187 10.9463 30.8269 10.292 31.361 10.2193L34.4659 9.79214L35.8328 6.94766C36.0591 6.466 36.738 6.47509 36.9733 6.94766ZM6.15963 6.94766L7.52651 9.79214L10.6405 10.2193C11.1655 10.292 11.3646 10.9463 10.9935 11.3098L8.7214 13.4909L9.28264 16.5989C9.37316 17.126 8.82097 17.5168 8.36836 17.2714L5.59839 15.781L2.82841 17.2714C2.3758 17.5168 1.79646 17.1351 1.91414 16.5626L2.46633 13.4909L0.194223 11.3098C-0.185969 10.9463 0.0222314 10.292 0.556311 10.2193L3.66122 9.79214L5.0281 6.94766C5.25441 6.466 5.93332 6.47509 6.15963 6.94766ZM21.5665 0.359001L22.9334 3.20348L26.0473 3.63061C26.5723 3.70331 26.7715 4.35763 26.4004 4.72115L24.1283 6.90222L24.6895 10.0102C24.78 10.5373 24.2278 10.9281 23.7662 10.6827L20.9962 9.18326L18.2262 10.6737C17.7736 10.919 17.1943 10.5373 17.3119 9.96481L17.8641 6.89313L15.592 4.71206C15.2118 4.34855 15.42 3.69423 15.9541 3.62152L19.059 3.1944L20.4259 0.349913C20.6613 -0.122653 21.3402 -0.113565 21.5665 0.359001Z" fill="#E41F26"/>
</svg>
